<?xml version="1.0" encoding="utf-8"?>
<!-- Generator: Adobe Illustrator 16.0.0, SVG Export Plug-In . SVG Version: 6.00 Build 0)  -->
<!DOCTYPE svg PUBLIC "-//W3C//DTD SVG 1.1//EN" "http://www.w3.org/Graphics/SVG/1.1/DTD/svg11.dtd">
<svg version="1.1" id="Layer_1" xmlns="http://www.w3.org/2000/svg" xmlns:xlink="http://www.w3.org/1999/xlink" x="0px" y="0px"
	 width="130px" height="130px" viewBox="0 0 130 130" enable-background="new 0 0 130 130" xml:space="preserve">
<g>
	<g>
		<g>
			<polygon fill="#490404" points="1.969,57.941 1.969,100.139 38.515,121.236 38.515,79.039 			"/>
			<polygon fill="#CE2605" points="38.515,79.039 38.515,121.236 111.6,79.039 111.6,36.84 			"/>
			<polygon fill="#EAE9D6" points="38.515,76.602 38.515,118.799 111.6,76.602 111.6,34.402 			"/>
			<polyline fill="#D8D6BF" points="111.6,36.84 38.515,79.039 38.515,118.5 			"/>
			<polygon fill="#A5A289" points="1.969,55.503 1.969,97.701 38.515,118.799 38.515,76.602 			"/>
			<polyline fill="#9B9981" points="38.515,117.74 38.515,79.039 1.969,57.941 			"/>
			<g>
				<polygon fill="#53BFEA" points="87.827,87.602 63.963,101.379 46.498,111.464 46.498,83.392 87.827,59.529 				"/>
				<polyline fill="#3AA3D8" points="63.963,101.379 46.498,111.464 46.498,83.392 87.827,59.529 				"/>
				<polygon fill="#2F93BA" points="46.498,86.252 63.963,76.17 87.827,62.391 87.827,59.529 46.498,83.392 				"/>
			</g>
			<polygon fill="#E3E5C1" points="75.059,15.744 1.969,57.941 38.515,79.039 111.6,36.84 			"/>
			<polygon fill="#CDD1A6" points="74.653,17.779 5.512,57.717 38.921,77.002 108.051,37.063 			"/>
			<polygon fill="#BABC91" points="7.13,58.65 38.921,77.002 106.436,37.996 74.653,19.65 			"/>
			<polyline fill="#B5B586" points="7.13,58.65 38.921,77.002 106.436,37.996 			"/>
			<g>
				<polygon fill="#1C7084" points="108.774,46.547 108.854,80.336 94.275,88.747 94.275,55.095 				"/>
				<polygon fill="#3EA0B7" points="107.869,79.678 94.275,87.523 94.275,55.095 107.793,47.122 				"/>
				<polyline fill="#368DA8" points="94.275,87.523 94.275,55.095 107.793,47.122 				"/>
			</g>
		</g>
		<g>
			<polygon fill="#CE2605" points="37.822,66.697 37.822,79.775 113.678,35.979 113.678,22.898 			"/>
			<polyline fill="#7A0D0A" points="113.678,22.898 37.822,66.697 37.822,79.775 			"/>
			<polygon fill="#5B1010" points="-0.109,44.799 -0.109,57.879 37.822,79.775 37.822,66.697 			"/>
			<polyline fill="#490404" points="37.822,79.775 37.822,66.697 -0.109,44.799 			"/>
			<polygon fill="#B71D08" points="75.752,1 -0.109,44.799 37.822,66.697 113.678,22.898 			"/>
			<polygon fill="#5B1010" points="75.33,3.115 3.568,44.564 38.244,64.582 109.995,23.129 			"/>
			<polygon fill="#490404" points="5.247,45.535 38.244,64.582 108.318,24.097 75.33,5.056 			"/>
			<polyline fill="#330303" points="5.247,45.535 38.244,64.582 108.318,24.097 			"/>
		</g>
		<g>
			<path fill="#EAE9D6" d="M92.844,61.382c-0.08,0-0.158-0.041-0.201-0.116c-0.066-0.111-0.029-0.256,0.082-0.321l18.164-10.712
				c0.11-0.066,0.256-0.029,0.321,0.084c0.066,0.111,0.029,0.256-0.083,0.322L92.963,61.35
				C92.926,61.371,92.885,61.382,92.844,61.382z"/>
		</g>
		<g>
			<path fill="#EAE9D6" d="M101.926,84.104c-0.13,0-0.234-0.105-0.234-0.234V55.791c0-0.129,0.104-0.234,0.234-0.234
				s0.234,0.105,0.234,0.234v28.078C102.16,83.998,102.056,84.104,101.926,84.104z"/>
		</g>
		<g>
			<polygon fill="#330303" points="74.416,8.799 65.665,13.847 65.665,16.877 74.416,21.93 83.164,16.877 83.164,13.847 			"/>
			<g>
				<g>
					<polygon fill="#AAC7CC" points="65.665,12.219 65.665,15.248 74.416,20.297 74.416,17.268 					"/>
					<polyline fill="#9BBBBF" points="74.416,20.297 74.416,17.268 65.665,12.219 					"/>
					<polygon fill="#769293" points="83.164,12.219 83.164,15.248 74.416,20.297 74.416,17.268 					"/>
					<polyline fill="#6C8A8C" points="74.416,20.297 74.416,17.268 83.164,12.219 					"/>
					<polygon fill="#BDDCE0" points="74.416,7.168 65.665,12.219 74.416,17.268 83.164,12.219 					"/>
					<polyline fill="#AAC7CC" points="65.665,12.219 74.416,17.268 83.164,12.219 					"/>
				</g>
			</g>
			<polygon fill="#330303" points="64.596,14.549 55.845,19.6 55.845,22.627 64.596,27.68 73.338,22.627 73.338,19.6 			"/>
			<g>
				<g>
					<polygon fill="#AAC7CC" points="55.845,17.969 55.845,20.996 64.596,26.049 64.596,23.018 					"/>
					<polyline fill="#9BBBBF" points="64.596,26.049 64.596,23.018 55.845,17.969 					"/>
					<polygon fill="#769293" points="73.338,17.969 73.338,20.996 64.596,26.049 64.596,23.018 					"/>
					<polyline fill="#6C8A8C" points="64.596,26.049 64.596,23.018 73.338,17.969 					"/>
					<polygon fill="#BDDCE0" points="64.596,12.922 55.845,17.969 64.596,23.018 73.338,17.969 					"/>
					<polyline fill="#AAC7CC" points="55.845,17.969 64.596,23.018 73.338,17.969 					"/>
				</g>
			</g>
		</g>
	</g>
	<g>
		<g>
			<g>
				<polygon fill="#A7D1D3" points="52.453,118.799 55.554,120.6 55.554,129 52.453,127.173 				"/>
				<polyline fill="#91BBBF" points="52.453,118.799 55.554,120.6 55.554,129 				"/>
				<polygon fill="#6B878E" points="58.646,118.799 55.554,120.6 55.554,129 58.646,127.173 				"/>
				<polyline fill="#527075" points="58.646,118.799 55.554,120.6 55.554,129 				"/>
				<polygon fill="#719499" points="55.554,116.988 58.646,118.799 55.554,120.6 52.453,118.799 				"/>
				<polyline fill="#5C7E7F" points="58.646,118.799 55.554,120.6 52.453,118.799 				"/>
			</g>
			<g>
				<g>
					<polygon fill="#527075" points="55.575,120.115 53.271,118.773 55.575,117.428 57.896,118.773 					"/>
					<polyline fill="#425D60" points="55.575,117.428 57.896,118.773 55.575,120.115 					"/>
					<g>
						<polygon fill="#8CADB5" points="54.607,91.583 55.575,92.174 55.575,119.26 54.607,118.693 						"/>
						<polygon fill="#7C949B" points="56.542,91.583 55.575,92.174 55.575,119.26 56.542,118.693 						"/>
						<polygon fill="#7C949B" points="54.607,91.583 54.607,93.438 55.575,93.976 55.575,92.898 55.575,92.898 55.575,92.174 						
							"/>
						<polygon fill="#547277" points="55.575,92.898 55.575,92.898 55.575,93.976 56.542,93.438 56.542,91.583 55.575,92.174 						
							"/>
					</g>
				</g>
				<g>
					<g>
						<polyline fill="#444738" points="52.655,89.48 52.655,88.359 55.554,90.044 						"/>
						<path fill="#A2CE02" d="M55.554,90.044"/>
					</g>
					<g>
						<polygon fill="#8CADB5" points="52.655,88.359 52.655,89.48 52.655,90.589 55.554,92.251 55.554,91.197 55.554,91.197 
							55.554,90.044 						"/>
						<polyline fill="#779AA0" points="55.554,92.251 55.554,91.197 55.554,91.197 55.554,90.044 52.655,88.359 						"/>
						<path fill="#C49427" d="M55.554,91.197"/>
						<polygon fill="#7C949B" points="55.554,90.044 55.554,91.197 55.554,91.197 55.554,92.251 58.425,90.589 58.425,89.48 
							58.425,88.359 						"/>
						<polyline fill="#6B878E" points="58.425,89.48 58.425,88.359 55.554,90.044 55.554,91.197 55.554,91.197 55.554,92.251 						
							"/>
					</g>
					<g>
						<path fill="#C49427" d="M55.554,92.251"/>
					</g>
					<polygon fill="#9EC6CC" points="52.655,88.359 55.554,90.044 56.689,89.357 58.425,88.359 55.554,86.699 					"/>
				</g>
			</g>
		</g>
		<g>
			<g>
				<polygon fill="#A7D1D3" points="120.227,79.942 123.325,81.744 123.325,90.143 120.227,88.319 				"/>
				<polyline fill="#91BBBF" points="120.227,79.942 123.325,81.744 123.325,90.143 				"/>
				<polygon fill="#6B878E" points="126.416,79.942 123.325,81.744 123.325,90.143 126.416,88.319 				"/>
				<polyline fill="#527075" points="126.416,79.942 123.325,81.744 123.325,90.143 				"/>
				<polygon fill="#719499" points="123.325,78.129 126.416,79.942 123.325,81.744 120.227,79.942 				"/>
				<polyline fill="#5C7E7F" points="126.416,79.942 123.325,81.744 120.227,79.942 				"/>
			</g>
			<g>
				<g>
					<polygon fill="#527075" points="123.348,81.26 121.045,79.914 123.348,78.572 125.672,79.914 					"/>
					<polyline fill="#425D60" points="123.348,78.572 125.672,79.914 123.348,81.26 					"/>
					<g>
						<polygon fill="#8CADB5" points="122.382,52.729 123.348,53.316 123.348,80.4 122.382,79.838 						"/>
						<polygon fill="#7C949B" points="124.313,52.729 123.348,53.316 123.348,80.4 124.313,79.838 						"/>
						<polygon fill="#7C949B" points="122.382,52.729 122.382,54.582 123.348,55.117 123.348,54.046 123.348,54.046 123.348,53.316 
													"/>
						<polygon fill="#547277" points="123.348,54.046 123.348,54.046 123.348,55.117 124.313,54.582 124.313,52.729 123.348,53.316 
													"/>
					</g>
				</g>
				<g>
					<g>
						<polyline fill="#444738" points="120.431,50.626 120.431,49.506 123.325,51.187 						"/>
						<path fill="#A2CE02" d="M123.325,51.187"/>
					</g>
					<g>
						<polygon fill="#8CADB5" points="120.431,49.506 120.431,50.626 120.431,51.732 123.325,53.395 123.325,52.338 123.325,52.338 
							123.325,51.187 						"/>
						<polyline fill="#779AA0" points="123.325,53.395 123.325,52.338 123.325,52.338 123.325,51.187 120.431,49.506 						"/>
						<path fill="#C49427" d="M123.325,52.338"/>
						<polygon fill="#7C949B" points="123.325,51.187 123.325,52.338 123.325,52.338 123.325,53.395 126.2,51.732 126.2,50.626 
							126.2,49.506 						"/>
						<polyline fill="#6B878E" points="126.2,50.626 126.2,49.506 123.325,51.187 123.325,52.338 123.325,52.338 123.325,53.395 
													"/>
					</g>
					<g>
						<path fill="#C49427" d="M123.325,53.395"/>
					</g>
					<polygon fill="#9EC6CC" points="120.431,49.506 123.325,51.187 124.462,50.5 126.2,49.506 123.325,47.842 					"/>
				</g>
			</g>
		</g>
		<g>
			<polygon fill="#CE2605" points="113.398,27.721 130.109,47.186 54.613,90.777 37.812,71.355 			"/>
			<g>
				<polyline fill="#B71D08" points="54.613,90.777 37.812,71.355 113.398,27.721 				"/>
				<g>
					<g>
						<path fill="#8E1209" d="M130.109,47.186c0,1.348-0.943,2.996-2.097,3.662c-1.158,0.666-2.098,0.105-2.098-1.242
							L130.109,47.186z"/>
						<path fill="#8E1209" d="M125.915,49.605c0,1.348-0.945,2.994-2.103,3.662c-1.151,0.666-2.098,0.111-2.098-1.234
							L125.915,49.605z"/>
						<path fill="#8E1209" d="M121.715,52.033c0,1.35-0.946,2.99-2.096,3.658c-1.154,0.666-2.1,0.112-2.1-1.23L121.715,52.033z"/>
						<path fill="#8E1209" d="M117.52,54.461c0,1.343-0.945,2.98-2.103,3.654c-1.151,0.666-2.097,0.108-2.097-1.238L117.52,54.461z"
							/>
						<path fill="#8E1209" d="M113.32,56.877c0,1.347-0.946,2.993-2.098,3.659c-1.151,0.667-2.098,0.114-2.098-1.235L113.32,56.877z
							"/>
						<path fill="#8E1209" d="M109.125,59.301c0,1.35-0.94,2.996-2.098,3.66c-1.156,0.66-2.1,0.103-2.1-1.236L109.125,59.301z"/>
						<path fill="#8E1209" d="M104.928,61.725c0,1.348-0.943,2.988-2.1,3.66c-1.15,0.668-2.094,0.105-2.094-1.234L104.928,61.725z"
							/>
						<path fill="#8E1209" d="M100.734,64.15c0,1.346-0.947,2.991-2.1,3.657c-1.154,0.663-2.1,0.109-2.1-1.236L100.734,64.15z"/>
						<path fill="#8E1209" d="M96.535,66.571c0,1.346-0.941,2.996-2.098,3.655c-1.156,0.673-2.098,0.108-2.098-1.236L96.535,66.571z
							"/>
					</g>
					<g>
						<path fill="#8E1209" d="M92.34,68.996c0,1.344-0.945,2.989-2.1,3.655c-1.152,0.666-2.094,0.11-2.094-1.243L92.34,68.996z"/>
						<path fill="#8E1209" d="M88.146,71.408c0,1.354-0.947,3-2.098,3.661c-1.158,0.673-2.098,0.116-2.098-1.235L88.146,71.408z"/>
						<path fill="#8E1209" d="M83.951,73.834c0,1.352-0.946,2.998-2.104,3.662c-1.151,0.67-2.095,0.112-2.095-1.236L83.951,73.834z"
							/>
						<path fill="#8E1209" d="M79.753,76.26c0,1.349-0.945,2.992-2.1,3.656c-1.154,0.672-2.098,0.111-2.098-1.236L79.753,76.26z"/>
						<path fill="#8E1209" d="M75.556,78.68c0,1.348-0.946,2.994-2.098,3.667c-1.157,0.664-2.098,0.104-2.098-1.245L75.556,78.68z"
							/>
						<path fill="#8E1209" d="M71.36,81.102c0,1.349-0.945,2.996-2.099,3.66c-1.156,0.67-2.1,0.11-2.1-1.236L71.36,81.102z"/>
						<path fill="#8E1209" d="M67.162,83.525c0,1.35-0.941,2.996-2.099,3.666c-1.151,0.66-2.095,0.104-2.095-1.242L67.162,83.525z"
							/>
						<path fill="#8E1209" d="M62.969,85.949c0,1.346-0.945,2.996-2.101,3.656c-1.151,0.672-2.097,0.113-2.097-1.23L62.969,85.949z"
							/>
						<polygon fill="#FFE0DC" points="58.229,88.689 62.547,86.197 45.747,66.775 41.428,69.27 						"/>
						<polygon fill="#FFE0DC" points="67.622,83.27 71.941,80.776 55.141,61.355 50.822,63.849 						"/>
						<polygon fill="#FFE0DC" points="77.016,77.85 81.334,75.355 64.534,55.935 60.215,58.428 						"/>
						<polygon fill="#FFE0DC" points="86.409,72.428 90.729,69.936 73.928,50.514 69.609,53.008 						"/>
						<polygon fill="#FFE0DC" points="95.803,67.008 100.121,64.515 83.32,45.094 79.002,47.587 						"/>
						<polygon fill="#FFE0DC" points="105.196,61.588 109.516,59.094 92.715,39.674 88.396,42.166 						"/>
						<polygon fill="#FFE0DC" points="114.59,56.167 118.908,53.674 102.107,34.253 97.789,36.746 						"/>
						<polygon fill="#FFE0DC" points="123.982,50.746 128.302,48.253 111.502,28.832 107.183,31.326 						"/>
						<path fill="#8E1209" d="M58.771,88.375c0,1.344-0.945,2.988-2.098,3.656c-1.158,0.67-2.098,0.115-2.098-1.238L58.771,88.375z"
							/>
					</g>
				</g>
				<polygon fill="#7A0D0A" points="54.613,90.777 37.812,81.078 37.812,71.38 				"/>
			</g>
		</g>
	</g>
	<g>
		<g>
			<g>
				<g>
					<g>
						<polygon fill="#075399" points="10.773,69.059 17.232,72.789 17.232,80.243 10.773,76.514 						"/>
						<polyline fill="#087FBA" points="17.232,72.789 17.232,80.243 10.773,76.514 						"/>
						<polygon fill="#73E5FF" points="11.824,75.936 17.232,79.053 17.232,72.789 11.824,69.672 						"/>
						<polyline fill="#29CDFF" points="17.232,79.053 17.232,72.789 11.824,69.672 						"/>
						<polygon fill="#087FBA" points="11.459,72.373 11.459,73.266 17.232,76.602 17.232,75.704 						"/>
					</g>
				</g>
			</g>
		</g>
		<g>
			<g>
				<g>
					<g>
						<polygon fill="#075399" points="23.252,76.222 29.711,79.951 29.711,87.4 23.252,83.686 						"/>
						<polyline fill="#087FBA" points="29.711,79.951 29.711,87.4 23.252,83.686 						"/>
						<polygon fill="#73E5FF" points="24.303,83.096 29.711,86.223 29.711,79.951 24.303,76.818 						"/>
						<polyline fill="#29CDFF" points="29.711,86.223 29.711,79.951 24.303,76.818 						"/>
						<polygon fill="#087FBA" points="23.935,79.525 23.935,80.436 29.711,83.771 29.711,82.865 						"/>
					</g>
				</g>
			</g>
		</g>
	</g>
</g>
</svg>
